<svg width="147" height="25" viewBox="0 0 147 25" fill="none" xmlns="http://www.w3.org/2000/svg">
<g filter="url(#filter0_d)">
<path d="M36.1898 6.16663H24.5369L24.1193 6.4953V16.6653H27.3251V12.837L27.619 12.5515H36.1898C38.3572 12.5515 39.3544 11.9777 39.3544 10.5067V8.16829C39.3544 6.73776 38.3572 6.16663 36.1898 6.16663ZM36.1898 9.9248C36.1898 10.6199 35.731 10.733 34.6899 10.733H27.674L27.3388 10.4474V8.29222L27.6328 8.00665H34.7119C35.7118 8.00665 36.2118 8.12788 36.2118 8.81486V9.91672L36.1898 9.9248Z" fill="white"/>
<path d="M45.277 8.08749L48.068 12.0908L47.9004 12.4599H41.736L40.1537 14.378H49.3179L49.9826 14.7471L51.4001 16.6653H55.1059L46.9856 6.04541" fill="white"/>
<path d="M82.0543 14.6232V11.7649L82.3894 11.4793H88.595V9.68237H78.7661V16.6653H93.2595V14.8684H82.4307" fill="white"/>
<path d="M93.3858 6.16934H78.7661V8.1306H93.3858V6.16934Z" fill="white"/>
<path d="M62.4816 8.04708H74.2691C74.1015 6.57614 73.1428 6.16125 70.8106 6.16125H62.3552C59.6906 6.16125 58.8555 6.65157 58.8555 8.65323V14.2137C58.8555 16.175 59.6796 16.7057 62.3552 16.7057H70.8023C73.1758 16.7057 74.0988 16.2558 74.1757 14.7444H62.4733L62.1382 14.4185V8.29223" fill="white"/>
<path d="M16.2051 10.2508H7.66729L7.41731 9.96522V8.1683L7.66729 7.96355H19.2048L19.3697 7.59716C18.9961 6.61653 17.9549 6.12622 16.0732 6.12622H8.04089C5.37626 6.12622 4.54391 6.61653 4.54391 8.6182V9.80357C4.54391 11.7621 5.36802 12.2956 8.04089 12.2956H16.5814L16.8314 12.5407V14.4265L16.6226 14.7121H4.29393C4.29393 14.7121 4 14.8764 4 14.9168C4.20877 16.307 5.16749 16.6734 7.45852 16.6734H16.2051C18.8697 16.6734 19.746 16.183 19.746 14.1814V12.7428C19.746 10.7842 18.8697 10.2508 16.2051 10.2508Z" fill="white"/>
<path d="M102.591 6.12622H97.759L97.509 6.61653L102.841 10.4555C103.841 9.88439 104.964 9.31326 106.137 8.73943" fill="white"/>
<path d="M106.923 13.3166L111.629 16.6653H116.461L116.67 16.2154L109.673 11.191C108.755 11.8861 107.797 12.5811 106.926 13.3166" fill="white"/>
<path d="M101.882 16.6653H97.5091L97.1355 16.0941C100.091 13.2735 113.343 1.27697 142.118 0C142.118 0 118.002 0.808209 101.882 16.6653Z" fill="#B2B0B2"/>
</g>
<defs>
<filter id="filter0_d" x="0" y="0" width="146.118" height="24.7057" filterUnits="userSpaceOnUse" color-interpolation-filters="sRGB">
<feFlood flood-opacity="0" result="BackgroundImageFix"/>
<feColorMatrix in="SourceAlpha" type="matrix" values="0 0 0 0 0 0 0 0 0 0 0 0 0 0 0 0 0 0 127 0"/>
<feOffset dy="4"/>
<feGaussianBlur stdDeviation="2"/>
<feColorMatrix type="matrix" values="0 0 0 0 0 0 0 0 0 0 0 0 0 0 0 0 0 0 0.25 0"/>
<feBlend mode="normal" in2="BackgroundImageFix" result="effect1_dropShadow"/>
<feBlend mode="normal" in="SourceGraphic" in2="effect1_dropShadow" result="shape"/>
</filter>
</defs>
</svg>
